<svg xmlns="http://www.w3.org/2000/svg" xmlns:xlink="http://www.w3.org/1999/xlink" viewBox="0 0 1280 720">
  <rect width="1280" height="720" fill="#FFFFFF"/>

  <polygon points="-50,0 84,0 128,72 -6,72" fill="#01ABA8"/>
  <polygon points="-70,36 64,36 108,108 -26,108" fill="#E3660D"/>

  <line x1="72" y1="76" x2="959" y2="76" stroke="#D9D9D9" stroke-width="1"/>
  <image x="969" y="0" width="299" height="76" xlink:href="logo_primary.png" preserveAspectRatio="xMaxYMid meet"/>

  <text x="72" y="58" fill="#0F373B" font-family="Microsoft YaHei, PingFang SC, Arial, sans-serif" font-size="30" font-weight="700">
    CONTENTS
  </text>
  <rect x="72" y="88" width="170" height="4" rx="2" fill="#E3660D"/>

  <line x1="132" y1="156" x2="132" y2="594" stroke="#D9D9D9" stroke-width="1"/>

  <text x="88" y="190" fill="#E3660D" font-family="Arial, Microsoft YaHei, sans-serif" font-size="30" font-weight="700">01</text>
  <text x="164" y="186" fill="#0F373B" font-family="Microsoft YaHei, PingFang SC, Arial, sans-serif" font-size="24" font-weight="700">{{TOC_ITEM_1_TITLE}}</text>
  <text x="164" y="214" fill="#6F6F6F" font-family="Microsoft YaHei, PingFang SC, Arial, sans-serif" font-size="14">{{TOC_ITEM_1_DESC}}</text>

  <text x="88" y="292" fill="#E3660D" font-family="Arial, Microsoft YaHei, sans-serif" font-size="30" font-weight="700">02</text>
  <text x="164" y="288" fill="#0F373B" font-family="Microsoft YaHei, PingFang SC, Arial, sans-serif" font-size="24" font-weight="700">{{TOC_ITEM_2_TITLE}}</text>
  <text x="164" y="316" fill="#6F6F6F" font-family="Microsoft YaHei, PingFang SC, Arial, sans-serif" font-size="14">{{TOC_ITEM_2_DESC}}</text>

  <text x="88" y="394" fill="#E3660D" font-family="Arial, Microsoft YaHei, sans-serif" font-size="30" font-weight="700">03</text>
  <text x="164" y="390" fill="#0F373B" font-family="Microsoft YaHei, PingFang SC, Arial, sans-serif" font-size="24" font-weight="700">{{TOC_ITEM_3_TITLE}}</text>
  <text x="164" y="418" fill="#6F6F6F" font-family="Microsoft YaHei, PingFang SC, Arial, sans-serif" font-size="14">{{TOC_ITEM_3_DESC}}</text>

  <text x="88" y="496" fill="#E3660D" font-family="Arial, Microsoft YaHei, sans-serif" font-size="30" font-weight="700">04</text>
  <text x="164" y="492" fill="#0F373B" font-family="Microsoft YaHei, PingFang SC, Arial, sans-serif" font-size="24" font-weight="700">{{TOC_ITEM_4_TITLE}}</text>
  <text x="164" y="520" fill="#6F6F6F" font-family="Microsoft YaHei, PingFang SC, Arial, sans-serif" font-size="14">{{TOC_ITEM_4_DESC}}</text>

  <rect x="820" y="156" width="390" height="318" fill="#F7F6F2" stroke="#D9D9D9" stroke-width="1.5"/>
  <rect x="820" y="156" width="390" height="10" fill="#01ABA8"/>
  <image x="844" y="184" width="342" height="250" xlink:href="campus_building_photo.png" preserveAspectRatio="xMidYMid meet"/>
  <rect x="860" y="458" width="310" height="32" rx="16" fill="#FFFFFF"/>
  <text x="1015" y="480" text-anchor="middle" fill="#6F6F6F" font-family="Arial, Microsoft YaHei, sans-serif" font-size="13" letter-spacing="1">
    SUSTECH CAMPUS IDENTITY
  </text>

  <line x1="72" y1="688" x2="1208" y2="688" stroke="#D9D9D9" stroke-width="1"/>
  <text x="76" y="706" fill="#9D9D9D" font-family="Arial, Microsoft YaHei, sans-serif" font-size="12" letter-spacing="1">
    SOUTHERN UNIVERSITY OF SCIENCE AND TECHNOLOGY
  </text>
</svg>
